<svg id="Layer_1" data-name="Layer 1" xmlns="http://www.w3.org/2000/svg" viewBox="0 0 32 32"><defs><style>.cls-1{fill:#1c3354;}.cls-2{fill:#079247;}.cls-3{fill:#ed2224;}</style></defs><path class="cls-1" d="M16,31.57A15.47,15.47,0,1,1,31.47,16.1,15.49,15.49,0,0,1,16,31.57ZM16,2.68A13.42,13.42,0,1,0,29.42,16.1,13.43,13.43,0,0,0,16,2.68Z"/><polygon class="cls-1" points="11.44 19.28 9.41 18.39 14.37 6.99 26.09 12.82 25.11 14.81 15.47 10.02 11.44 19.28"/><polygon class="cls-2" points="16.45 25.21 14.42 24.33 19.38 12.93 25.26 15.86 24.27 17.84 20.48 15.95 16.45 25.21"/><polygon class="cls-3" points="13.32 24.2 5.91 20.43 6.91 18.46 12.24 21.16 16.35 11.94 18.37 12.84 13.32 24.2"/></svg>