<svg id="Layer_1" data-name="Layer 1" xmlns="http://www.w3.org/2000/svg" viewBox="0 0 130 26.59"><defs><style>.cls-1{fill:#fff;}</style></defs><path class="cls-1" d="M15.72,25.68a12.4,12.4,0,1,1,12.4-12.4A12.42,12.42,0,0,1,15.72,25.68Zm0-23.16A10.76,10.76,0,1,0,26.47,13.28,10.77,10.77,0,0,0,15.72,2.52Z"/><polygon class="cls-1" points="11.83 15.99 10.09 15.24 14.32 5.51 24.33 10.48 23.49 12.18 15.26 8.09 11.83 15.99"/><polygon class="cls-1" points="16.1 21.06 14.37 20.3 18.6 10.57 23.62 13.07 22.78 14.77 19.54 13.15 16.1 21.06"/><polygon class="cls-1" points="13.43 20.19 7.1 16.98 7.96 15.29 12.51 17.6 16.01 9.73 17.74 10.5 13.43 20.19"/><path class="cls-1" d="M33.54,7h4a5.34,5.34,0,0,1,5.69,5.32v0a5.36,5.36,0,0,1-5.69,5.35h-4Zm1.88,1.71V16h2.11a3.49,3.49,0,0,0,3.72-3.61v0a3.52,3.52,0,0,0-3.72-3.64Z"/><path class="cls-1" d="M44.73,15.4v0c0-1.76,1.38-2.6,3.35-2.6a6.93,6.93,0,0,1,2.17.33v-.19c0-1.17-.7-1.76-2-1.76a5.64,5.64,0,0,0-2.31.5l-.51-1.45a7.32,7.32,0,0,1,3.06-.66,3.61,3.61,0,0,1,2.68.9,3.42,3.42,0,0,1,.87,2.5v4.78h-1.8v-1a3.29,3.29,0,0,1-2.63,1.18C46.09,17.89,44.73,17,44.73,15.4Zm5.55-.58v-.55A5,5,0,0,0,48.45,14c-1.21,0-1.9.48-1.9,1.34v0c0,.78.67,1.22,1.58,1.22C49.35,16.54,50.28,15.86,50.28,14.82Z"/><path class="cls-1" d="M59.55,9.65h1.92l-3.21,8.29c-.66,1.66-1.36,2.27-2.66,2.27a3.64,3.64,0,0,1-1.91-.5l.63-1.36a2.34,2.34,0,0,0,1.08.3c.54,0,.84-.23,1.15-.91L53.19,9.65h2l2.27,6Z"/><path class="cls-1" d="M70.48,8.76H67.07V7h8.7V8.76H72.36v9H70.48Z"/><path class="cls-1" d="M76.42,9.65h1.87v1.82a2.84,2.84,0,0,1,2.86-2v1.95H81c-1.64,0-2.75,1.06-2.75,3.2v3.07H76.42Z"/><path class="cls-1" d="M81.82,15.4v0c0-1.76,1.37-2.6,3.35-2.6a7,7,0,0,1,2.17.33v-.19c0-1.17-.71-1.76-2-1.76a5.63,5.63,0,0,0-2.3.5l-.51-1.45a7.28,7.28,0,0,1,3.06-.66,3.63,3.63,0,0,1,2.68.9,3.42,3.42,0,0,1,.87,2.5v4.78H87.32v-1a3.27,3.27,0,0,1-2.63,1.18A2.58,2.58,0,0,1,81.82,15.4Zm5.55-.58v-.55A5,5,0,0,0,85.53,14c-1.2,0-1.89.48-1.89,1.34v0c0,.78.67,1.22,1.57,1.22C86.44,16.54,87.37,15.86,87.37,14.82Z"/><path class="cls-1" d="M90.93,13.7v0a3.85,3.85,0,0,1,3.75-4.19,3.32,3.32,0,0,1,2.75,1.42V6.56h1.85V17.72H97.43V16.38a3.25,3.25,0,0,1-2.75,1.51A3.86,3.86,0,0,1,90.93,13.7Zm6.53,0v0a2.42,2.42,0,0,0-2.34-2.58,2.38,2.38,0,0,0-2.33,2.58v0a2.39,2.39,0,0,0,2.33,2.58A2.43,2.43,0,0,0,97.46,13.7Z"/><path class="cls-1" d="M101.63,6.65h2V8.41h-2Zm.06,3h1.87v8.07h-1.87Z"/><path class="cls-1" d="M106,9.65h1.86v1.24a2.94,2.94,0,0,1,2.53-1.41c1.83,0,2.87,1.21,2.87,3.09v5.15h-1.85V13.13c0-1.26-.63-2-1.73-2a1.79,1.79,0,0,0-1.82,2v4.55H106Z"/><path class="cls-1" d="M115.44,19.24l.68-1.4a5.28,5.28,0,0,0,2.88.84,2.24,2.24,0,0,0,2.55-2.46v-.61a3.39,3.39,0,0,1-2.84,1.47A3.62,3.62,0,0,1,115,13.3v0a3.63,3.63,0,0,1,3.67-3.79,3.49,3.49,0,0,1,2.83,1.38V9.65h1.85v6.42a4.1,4.1,0,0,1-1,3A4.49,4.49,0,0,1,119,20.2,6.8,6.8,0,0,1,115.44,19.24Zm6.13-5.95v0a2.25,2.25,0,0,0-2.37-2.2,2.17,2.17,0,0,0-2.3,2.2v0a2.2,2.2,0,0,0,2.3,2.21A2.25,2.25,0,0,0,121.57,13.29Z"/></svg>