<svg xmlns="http://www.w3.org/2000/svg" viewBox="0 0 197 40.7"><g id="Layer_2" data-name="Layer 2"><g id="Layer_1-2" data-name="Layer 1"><path d="M20.35,40.7A20.35,20.35,0,1,1,40.7,20.35h0A20.39,20.39,0,0,1,20.35,40.7Zm0-38A17.66,17.66,0,1,0,38,20.37v0A17.68,17.68,0,0,0,20.35,2.69Z" fill="#fff"/><path d="M49.59,10h6.57a8.77,8.77,0,0,1,9.32,8.17c0,.19,0,.38,0,.56h0a8.8,8.8,0,0,1-8.8,8.8l-.54,0H49.59Zm3.09,2.81v12h3.46a5.72,5.72,0,0,0,6.1-5.33c0-.2,0-.39,0-.59h0a5.78,5.78,0,0,0-5.57-6,4.87,4.87,0,0,0-.54,0Z" fill="#fff"/><path d="M68,23.83h0c0-2.89,2.26-4.27,5.5-4.27A11.35,11.35,0,0,1,77,20.1v-.31c0-1.92-1.15-2.89-3.29-2.89a9.53,9.53,0,0,0-3.79.82l-.83-2.38a12.21,12.21,0,0,1,5-1.08,5.93,5.93,0,0,1,4.4,1.48A5.61,5.61,0,0,1,80,19.84v7.85H77V26A5.4,5.4,0,0,1,72.68,28C70.19,27.91,68,26.45,68,23.83Zm9.11-.95V22a8.33,8.33,0,0,0-3-.44c-2,0-3.12.79-3.12,2.2h0c0,1.28,1.1,2,2.6,2C75.54,25.7,77.07,24.58,77.07,22.88Z" fill="#fff"/><path d="M92.28,14.39h3.15L90.16,28c-1.08,2.72-2.23,3.72-4.36,3.72a6,6,0,0,1-3.14-.82l1-2.23a3.79,3.79,0,0,0,1.77.49c.88,0,1.38-.38,1.89-1.49L81.84,14.39h3.28l3.73,9.85Z" fill="#fff"/><path d="M110.22,12.93h-5.6V10H118.9v2.89h-5.6V27.7h-3.08Z" fill="#fff"/><path d="M120,14.39H123v3a4.66,4.66,0,0,1,4.7-3.28v3.2h-.25c-2.69,0-4.51,1.74-4.51,5.25v5h-3Z" fill="#fff"/><path d="M128.83,23.83h0c0-2.89,2.24-4.27,5.49-4.27a11.6,11.6,0,0,1,3.56.54v-.31c0-1.92-1.16-2.89-3.28-2.89a9.4,9.4,0,0,0-3.77.82L130,15.34a11.93,11.93,0,0,1,5-1.08,6,6,0,0,1,4.4,1.48,5.62,5.62,0,0,1,1.43,4.1v7.85h-3V26A5.35,5.35,0,0,1,133.54,28a4.24,4.24,0,0,1-4.69-3.73C128.84,24.11,128.83,24,128.83,23.83Zm9.1-.95V22a8.35,8.35,0,0,0-3-.44c-2,0-3.1.79-3.1,2.2h0c0,1.28,1.1,2,2.58,2C136.41,25.7,137.93,24.58,137.93,22.88Z" fill="#fff"/><path d="M143.78,21h0a6.3,6.3,0,0,1,5.73-6.85l.42,0a5.46,5.46,0,0,1,4.51,2.33V9.32h3V27.64h-3v-2.2a5.32,5.32,0,0,1-4.51,2.47,6.33,6.33,0,0,1-6.18-6.48C143.76,21.3,143.76,21.17,143.78,21Zm10.71,0h0a4,4,0,0,0-3.7-4.23h-.14a3.92,3.92,0,0,0-3.84,4c0,.09,0,.17,0,.26h0a3.92,3.92,0,0,0,3.6,4.22h.22a4,4,0,0,0,3.85-4.12S154.49,21.07,154.49,21Z" fill="#fff"/><path d="M161.34,9.47h3.28v2.89h-3.28Zm.09,4.92h3.07V27.64h-3.07Z" fill="#fff"/><path d="M168.51,14.39h3.05v2a4.83,4.83,0,0,1,4.15-2.32c3,0,4.71,2,4.71,5.07v8.46h-3V20.1c0-2.06-1-3.28-2.84-3.28a2.94,2.94,0,0,0-3,2.87,2.75,2.75,0,0,0,0,.41v7.47h-3.05Z" fill="#fff"/><path d="M184,30.13l1.11-2.3a8.64,8.64,0,0,0,4.73,1.38A3.68,3.68,0,0,0,194,26.1a4.12,4.12,0,0,0,0-.93v-1a5.58,5.58,0,0,1-4.66,2.42,6,6,0,0,1-6.1-5.79c0-.14,0-.28,0-.42h0A6,6,0,0,1,189,14.17h.33a5.74,5.74,0,0,1,4.64,2.27v-2h3V24.93a6.75,6.75,0,0,1-1.64,4.92,7.35,7.35,0,0,1-5.5,1.86A11.21,11.21,0,0,1,184,30.13Zm10.06-9.76h0a3.7,3.7,0,0,0-3.77-3.62h-.12a3.56,3.56,0,0,0-3.77,3.34c0,.09,0,.18,0,.27h0A3.61,3.61,0,0,0,190,24h.19a3.68,3.68,0,0,0,3.88-3.49A.57.57,0,0,0,194.06,20.37Z" fill="#fff"/><polygon points="13.85 24.88 10.95 23.61 18 7.35 34.74 15.67 33.33 18.5 19.58 11.67 13.85 24.88" fill="#fff"/><polygon points="20.99 33.35 18.1 32.08 25.16 15.82 33.54 19.99 32.15 22.83 26.73 20.14 20.99 33.35" fill="#fff"/><polygon points="16.53 31.9 5.94 26.52 7.38 23.7 14.98 27.57 20.84 14.41 23.71 15.69 16.53 31.9" fill="#fff"/></g></g></svg>